HIERARCHY
ROOT Hips
{
    OFFSET 0.000000 0.000000 0.000000
    CHANNELS 6 Xposition Yposition Zposition Zrotation Xrotation Yrotation
    JOINT Spine
    {
        OFFSET 0.000002 7.756658 -0.000012
        CHANNELS 3 Zrotation Xrotation Yrotation
        JOINT Spine1
        {
            OFFSET 0.000007 20.811090 -0.000045
            CHANNELS 3 Zrotation Xrotation Yrotation
            JOINT Neck
            {
                OFFSET 0.000007 22.515327 -0.000037
                CHANNELS 3 Zrotation Xrotation Yrotation
                JOINT Head
                {
                    OFFSET -0.000005 14.501746 1.902187
                    CHANNELS 3 Zrotation Xrotation Yrotation
                    End Site
                    {
                        OFFSET 0.000000 19.022141 0.000000
                    }
                }
            }
            JOINT LeftShoulder
            {
                OFFSET 3.797828 16.121201 -0.677287
                CHANNELS 3 Zrotation Xrotation Yrotation
                JOINT LeftArm
                {
                    OFFSET 11.576579 0.000005 0.000018
                    CHANNELS 3 Zrotation Xrotation Yrotation
                    JOINT LeftForeArm
                    {
                        OFFSET 29.906395 0.000006 -0.000006
                        CHANNELS 3 Zrotation Xrotation Yrotation
                        JOINT LeftHand
                        {
                            OFFSET 24.318306 0.000006 0.000010
                            CHANNELS 3 Zrotation Xrotation Yrotation
                            JOINT LeftHandThumb1
                            {
                                OFFSET 1.987813 -2.258873 3.162430
                                CHANNELS 3 Zrotation Xrotation Yrotation
                                JOINT LeftHandThumb2
                                {
                                    OFFSET 3.002280 0.000015 -0.000003
                                    CHANNELS 3 Zrotation Xrotation Yrotation
                                    JOINT LeftHandThumb3
                                    {
                                        OFFSET 2.566101 -0.000002 0.000004
                                        CHANNELS 3 Zrotation Xrotation Yrotation
                                        End Site
                                        {
                                            OFFSET 2.440626 0.000000 0.000000
                                        }
                                    }
                                }
                            }
                            JOINT LeftHandIndex1
                            {
                                OFFSET 8.131968 0.000005 3.162434
                                CHANNELS 3 Zrotation Xrotation Yrotation
                                JOINT LeftHandIndex2
                                {
                                    OFFSET 4.517768 -0.000005 0.000003
                                    CHANNELS 3 Zrotation Xrotation Yrotation
                                    JOINT LeftHandIndex3
                                    {
                                        OFFSET 2.258862 0.000007 -0.000003
                                        CHANNELS 3 Zrotation Xrotation Yrotation
                                        End Site
                                        {
                                            OFFSET 2.148437 0.000000 0.000000
                                        }
                                    }
                                }
                            }
                            JOINT LeftHandMiddle1
                            {
                                OFFSET 8.131959 0.000009 1.048122
                                CHANNELS 3 Zrotation Xrotation Yrotation
                                JOINT LeftHandMiddle2
                                {
                                    OFFSET 4.969531 -0.000002 0.000006
                                    CHANNELS 3 Zrotation Xrotation Yrotation
                                    JOINT LeftHandMiddle3
                                    {
                                        OFFSET 2.710667 -0.000010 0.000006
                                        CHANNELS 3 Zrotation Xrotation Yrotation
                                        End Site
                                        {
                                            OFFSET 2.578118 0.000000 0.000000
                                        }
                                    }
                                }
                            }
                            JOINT LeftHandRing1
                            {
                                OFFSET 7.680212 -0.000004 -1.048116
                                CHANNELS 3 Zrotation Xrotation Yrotation
                                JOINT LeftHandRing2
                                {
                                    OFFSET 4.517768 -0.000004 0.000004
                                    CHANNELS 3 Zrotation Xrotation Yrotation
                                    JOINT LeftHandRing3
                                    {
                                        OFFSET 2.258862 0.000008 -0.000000
                                        CHANNELS 3 Zrotation Xrotation Yrotation
                                        End Site
                                        {
                                            OFFSET 2.148437 0.000000 0.000000
                                        }
                                    }
                                }
                            }
                            JOINT LeftHandPinky1
                            {
                                OFFSET 7.228394 0.000009 -3.162429
                                CHANNELS 3 Zrotation Xrotation Yrotation
                                JOINT LeftHandPinky2
                                {
                                    OFFSET 3.614196 0.000003 0.000003
                                    CHANNELS 3 Zrotation Xrotation Yrotation
                                    JOINT LeftHandPinky3
                                    {
                                        OFFSET 1.807101 0.000006 -0.000000
                                        CHANNELS 3 Zrotation Xrotation Yrotation
                                        End Site
                                        {
                                            OFFSET 1.718745 0.000000 0.000000
                                        }
                                    }
                                }
                            }
                        }
                    }
                }
            }
            JOINT RightShoulder
            {
                OFFSET -3.797829 16.121201 -0.677311
                CHANNELS 3 Zrotation Xrotation Yrotation
                JOINT RightArm
                {
                    OFFSET -11.576583 0.000003 -0.000004
                    CHANNELS 3 Zrotation Xrotation Yrotation
                    JOINT RightForeArm
                    {
                        OFFSET -29.906404 0.000003 -0.000004
                        CHANNELS 3 Zrotation Xrotation Yrotation
                        JOINT RightHand
                        {
                            OFFSET -24.318310 -0.000012 0.000006
                            CHANNELS 3 Zrotation Xrotation Yrotation
                            JOINT RightHandThumb1
                            {
                                OFFSET -1.987830 -2.258884 3.162428
                                CHANNELS 3 Zrotation Xrotation Yrotation
                                JOINT RightHandThumb2
                                {
                                    OFFSET -3.002295 -0.000003 0.000001
                                    CHANNELS 3 Zrotation Xrotation Yrotation
                                    JOINT RightHandThumb3
                                    {
                                        OFFSET -2.566098 -0.000004 0.000001
                                        CHANNELS 3 Zrotation Xrotation Yrotation
                                        End Site
                                        {
                                            OFFSET -2.440626 0.000000 0.000000
                                        }
                                    }
                                }
                            }
                            JOINT RightHandIndex1
                            {
                                OFFSET -8.131980 -0.000009 3.162429
                                CHANNELS 3 Zrotation Xrotation Yrotation
                                JOINT RightHandIndex2
                                {
                                    OFFSET -4.517748 -0.000001 0.000001
                                    CHANNELS 3 Zrotation Xrotation Yrotation
                                    JOINT RightHandIndex3
                                    {
                                        OFFSET -2.258874 -0.000001 0.000001
                                        CHANNELS 3 Zrotation Xrotation Yrotation
                                        End Site
                                        {
                                            OFFSET -2.148437 0.000000 0.000000
                                        }
                                    }
                                }
                            }
                            JOINT RightHandMiddle1
                            {
                                OFFSET -8.131950 -0.000004 1.048122
                                CHANNELS 3 Zrotation Xrotation Yrotation
                                JOINT RightHandMiddle2
                                {
                                    OFFSET -4.969543 0.000001 0.000001
                                    CHANNELS 3 Zrotation Xrotation Yrotation
                                    JOINT RightHandMiddle3
                                    {
                                        OFFSET -2.710669 0.000001 0.000001
                                        CHANNELS 3 Zrotation Xrotation Yrotation
                                        End Site
                                        {
                                            OFFSET -2.578118 0.000000 0.000000
                                        }
                                    }
                                }
                            }
                            JOINT RightHandRing1
                            {
                                OFFSET -7.680168 -0.000001 -1.048115
                                CHANNELS 3 Zrotation Xrotation Yrotation
                                JOINT RightHandRing2
                                {
                                    OFFSET -4.517748 -0.000001 0.000001
                                    CHANNELS 3 Zrotation Xrotation Yrotation
                                    JOINT RightHandRing3
                                    {
                                        OFFSET -2.258874 -0.000001 0.000000
                                        CHANNELS 3 Zrotation Xrotation Yrotation
                                        End Site
                                        {
                                            OFFSET -2.148437 0.000000 0.000000
                                        }
                                    }
                                }
                            }
                            JOINT RightHandPinky1
                            {
                                OFFSET -7.228392 0.000002 -3.162425
                                CHANNELS 3 Zrotation Xrotation Yrotation
                                JOINT RightHandPinky2
                                {
                                    OFFSET -3.614207 -0.000005 -0.000002
                                    CHANNELS 3 Zrotation Xrotation Yrotation
                                    JOINT RightHandPinky3
                                    {
                                        OFFSET -1.807082 0.000007 0.000007
                                        CHANNELS 3 Zrotation Xrotation Yrotation
                                        End Site
                                        {
                                            OFFSET -1.718745 0.000000 0.000000
                                        }
                                    }
                                }
                            }
                        }
                    }
                }
            }
        }
    }
    JOINT LeftUpLeg
    {
        OFFSET 9.511065 -0.000002 0.000012
        CHANNELS 3 Zrotation Xrotation Yrotation
        JOINT LeftLeg
        {
            OFFSET 0.000001 -43.875633 0.000010
            CHANNELS 3 Zrotation Xrotation Yrotation
            JOINT LeftFoot
            {
                OFFSET 0.000005 -35.354156 -0.000019
                CHANNELS 3 Zrotation Xrotation Yrotation
                JOINT LeftToeBase
                {
                    OFFSET -0.000000 -6.182192 14.266604
                    CHANNELS 3 Zrotation Xrotation Yrotation
                    End Site
                    {
                        OFFSET 0.000000 0.000000 3.804428
                    }
                }
            }
        }
    }
    JOINT RightUpLeg
    {
        OFFSET -9.511065 0.000002 -0.000012
        CHANNELS 3 Zrotation Xrotation Yrotation
        JOINT RightLeg
        {
            OFFSET -0.000003 -43.875633 0.000002
            CHANNELS 3 Zrotation Xrotation Yrotation
            JOINT RightFoot
            {
                OFFSET -0.000007 -35.354145 0.000018
                CHANNELS 3 Zrotation Xrotation Yrotation
                JOINT RightToeBase
                {
                    OFFSET 0.000000 -6.182191 14.266602
                    CHANNELS 3 Zrotation Xrotation Yrotation
                    End Site
                    {
                        OFFSET 0.000000 0.000000 3.804428
                    }
                }
            }
        }
    }
}
MOTION
Frames:    5
Frame Time:    0.002778
19.144421    87.821564    596.235352    4.346763    -5.785094    -153.095520    -0.235106    7.447235    3.119821    -1.175528    7.445745    3.241702    7.369308    9.156381    -20.674082    7.369309    9.156380    -20.674082    -1.567132    -4.432739    -1.683921    -60.418530    -12.031322    -25.128744    -71.157906    28.231489    -80.514122    -17.855288    -1.126271    1.127637    47.448235    38.866428    -34.355057    -35.000000    -0.000010    0.000002    -0.000000    0.000000    -0.000000    0.000007    10.000001    -0.000007    -0.000000    0.000000    -0.000000    -0.000000    0.000000    -0.000000    -0.000000    0.000000    -0.000000    -0.000000    0.000000    -0.000000    -0.000000    0.000000    -0.000000    -0.000000    0.000000    -0.000000    -0.000000    0.000000    -0.000000    -0.000000    0.000000    -0.000000    -0.000001    -9.999997    -0.000027    -0.000000    0.000000    -0.000000    -0.000000    0.000000    -0.000000    -7.653960    1.840085    3.104738    58.030396    26.894058    13.163836    -12.029130    29.158365    87.360359    -58.843658    23.101099    -13.173045    -47.448231    38.866428    34.355057    34.999992    -0.000006    -0.000003    -0.000000    0.000000    -0.000000    -0.000003    10.000005    0.000010    -0.000000    0.000000    -0.000000    -0.000000    0.000000    -0.000000    -0.000000    0.000000    -0.000000    -0.000000    0.000000    -0.000000    -0.000000    0.000000    -0.000000    -0.000000    0.000000    -0.000000    -0.000000    0.000000    -0.000000    -0.000000    0.000000    -0.000000    -0.000000    -9.999997    0.000004    -0.000000    0.000000    -0.000000    -0.000000    0.000000    -0.000000    16.067553    -30.897774    0.583426    -0.000002    45.968704    0.000000    -11.232038    -19.836498    -2.002951    0.000000    -0.287049    0.000001    -15.793235    -25.962584    -4.710507    0.000001    48.716232    -0.000002    18.694599    -21.656879    -16.207666    -0.000000    -3.192344    -0.000000    
19.103333    87.768234    596.242310    4.343701    -5.691857    -153.029099    -0.232542    7.460803    3.184296    -1.162709    7.459342    3.305063    7.426713    9.256272    -20.769167    7.426716    9.256272    -20.769169    -1.542438    -4.443387    -1.679434    -60.471809    -12.088699    -25.188061    -71.188995    28.363718    -80.592514    -17.919102    -1.124790    1.116126    47.448242    38.866444    -34.355061    -34.999992    -0.000009    -0.000001    -0.000000    0.000000    -0.000000    0.000000    9.999997    -0.000003    -0.000000    0.000000    -0.000000    -0.000000    0.000000    -0.000000    -0.000000    0.000000    -0.000000    -0.000000    0.000000    -0.000000    -0.000000    0.000000    -0.000000    -0.000000    0.000000    -0.000000    -0.000000    0.000000    -0.000000    -0.000000    0.000000    -0.000000    0.000014    -10.000010    -0.000009    -0.000000    0.000000    -0.000000    -0.000000    0.000000    -0.000000    -7.594584    1.834533    3.104598    58.017906    26.898159    13.264096    -12.192108    29.143314    87.568932    -58.865902    23.063740    -13.141292    -47.448215    38.866428    34.355038    35.000004    -0.000004    0.000003    -0.000000    0.000000    -0.000000    -0.000002    10.000007    0.000009    -0.000000    0.000000    -0.000000    -0.000000    0.000000    -0.000000    -0.000000    0.000000    -0.000000    -0.000000    0.000000    -0.000000    -0.000000    0.000000    -0.000000    -0.000000    0.000000    -0.000000    -0.000000    0.000000    -0.000000    -0.000000    0.000000    -0.000000    0.000002    -9.999997    0.000009    -0.000000    0.000000    -0.000000    -0.000000    0.000000    -0.000000    16.062351    -30.951286    0.557533    -0.000000    46.226051    0.000001    -11.187690    -19.956642    -2.079796    -0.000000    -0.298357    -0.000001    -15.796868    -25.909275    -4.707354    0.000005    48.855988    -0.000006    18.722755    -21.731260    -16.219486    -0.000000    -3.203790    0.000000    
19.061880    87.714142    596.249084    4.339213    -5.597570    -152.962265    -0.229139    7.474305    3.244564    -1.145691    7.472884    3.363773    7.474276    9.351552    -20.864979    7.474278    9.351551    -20.864983    -1.509776    -4.452182    -1.677114    -60.524628    -12.159462    -25.243622    -71.222458    28.497511    -80.670029    -17.989658    -1.125063    1.109409    47.448227    38.866428    -34.355053    -35.000000    -0.000003    -0.000003    -0.000000    0.000000    -0.000000    -0.000002    10.000005    -0.000003    -0.000000    0.000000    -0.000000    -0.000000    0.000000    -0.000000    -0.000000    0.000000    -0.000000    -0.000000    0.000000    -0.000000    -0.000000    0.000000    -0.000000    -0.000000    0.000000    -0.000000    -0.000000    0.000000    -0.000000    -0.000000    0.000000    -0.000000    0.000002    -9.999982    -0.000017    -0.000000    0.000000    -0.000000    -0.000000    0.000000    -0.000000    -7.543336    1.841587    3.106062    57.996078    26.933706    13.374083    -12.355384    29.127785    87.782249    -58.936741    23.029322    -13.086673    -47.448235    38.866428    34.355053    34.999996    0.000004    -0.000006    -0.000000    0.000000    -0.000000    -0.000003    10.000008    0.000010    -0.000000    0.000000    -0.000000    -0.000000    0.000000    -0.000000    -0.000000    0.000000    -0.000000    -0.000000    0.000000    -0.000000    -0.000000    0.000000    -0.000000    -0.000000    0.000000    -0.000000    -0.000000    0.000000    -0.000000    -0.000000    0.000000    -0.000000    0.000001    -9.999988    0.000017    -0.000000    0.000000    -0.000000    -0.000000    0.000000    -0.000000    16.055998    -31.006552    0.531446    0.000001    46.487759    -0.000002    -11.119422    -20.082222    -2.150953    -0.000000    -0.291990    -0.000002    -15.803256    -25.853201    -4.703773    0.000003    48.997719    -0.000003    18.762823    -21.810118    -16.222771    -0.000000    -3.205655    -0.000000    
19.016758    87.660233    596.255188    4.332400    -5.501224    -152.894699    -0.225857    7.486796    3.302706    -1.129286    7.485418    3.420414    7.520804    9.445378    -20.949703    7.520806    9.445386    -20.949705    -1.479504    -4.460934    -1.672677    -60.582092    -12.220760    -25.296341    -71.238876    28.631124    -80.759300    -18.053814    -1.116347    1.076266    47.448215    38.866432    -34.355038    -34.999996    -0.000002    0.000007    -0.000000    0.000000    -0.000000    -0.000007    10.000005    0.000004    -0.000000    0.000000    -0.000000    -0.000000    0.000000    -0.000000    -0.000000    0.000000    -0.000000    -0.000000    0.000000    -0.000000    -0.000000    0.000000    -0.000000    -0.000000    0.000000    -0.000000    -0.000000    0.000000    -0.000000    -0.000000    0.000000    -0.000000    -0.000006    -9.999989    -0.000007    -0.000000    0.000000    -0.000000    -0.000000    0.000000    -0.000000    -7.484762    1.857579    3.099880    57.962959    26.938314    13.476710    -12.605156    29.119951    88.028786    -59.053658    22.972015    -12.996100    -47.448219    38.866428    34.355030    35.000008    -0.000000    0.000007    -0.000000    0.000000    -0.000000    -0.000002    10.000002    -0.000007    -0.000000    0.000000    -0.000000    -0.000000    0.000000    -0.000000    -0.000000    0.000000    -0.000000    -0.000000    0.000000    -0.000000    -0.000000    0.000000    -0.000000    -0.000000    0.000000    -0.000000    -0.000000    0.000000    -0.000000    -0.000000    0.000000    -0.000000    -0.000000    -9.999993    0.000007    -0.000000    0.000000    -0.000000    -0.000000    0.000000    -0.000000    16.042847    -31.059050    0.501650    0.000004    46.755051    -0.000001    -11.043030    -20.209122    -2.215091    -0.000000    -0.283979    -0.000002    -15.819128    -25.791042    -4.712193    0.000003    49.138596    -0.000002    18.820162    -21.888659    -16.208532    0.000000    -3.203914    -0.000000    
18.970078    87.607353    596.257751    4.323993    -5.404029    -152.835052    -0.223886    7.497676    3.364359    -1.119426    7.496315    3.481201    7.572901    9.536241    -21.033283    7.572904    9.536242    -21.033285    -1.455398    -4.466819    -1.665973    -60.628235    -12.275210    -25.350611    -71.253136    28.767025    -80.844055    -18.142252    -1.112359    1.055988    47.448204    38.866421    -34.355030    -34.999992    -0.000006    0.000007    -0.000000    0.000000    -0.000000    0.000000    10.000010    -0.000010    -0.000000    0.000000    -0.000000    -0.000000    0.000000    -0.000000    -0.000000    0.000000    -0.000000    -0.000000    0.000000    -0.000000    -0.000000    0.000000    -0.000000    -0.000000    0.000000    -0.000000    -0.000000    0.000000    -0.000000    -0.000000    0.000000    -0.000000    -0.000000    -9.999998    -0.000000    -0.000000    0.000000    -0.000000    -0.000000    0.000000    -0.000000    -7.422103    1.853969    3.109876    57.989250    26.899094    13.545859    -12.533377    28.992928    88.152946    -59.105171    23.000492    -12.987028    -47.448212    38.866440    34.355030    35.000004    -0.000002    0.000006    -0.000000    0.000000    -0.000000    -0.000000    9.999997    -0.000004    -0.000000    0.000000    -0.000000    -0.000000    0.000000    -0.000000    -0.000000    0.000000    -0.000000    -0.000000    0.000000    -0.000000    -0.000000    0.000000    -0.000000    -0.000000    0.000000    -0.000000    -0.000000    0.000000    -0.000000    -0.000000    0.000000    -0.000000    -0.000003    -9.999999    -0.000006    -0.000000    0.000000    -0.000000    -0.000000    0.000000    -0.000000    16.029783    -31.101082    0.471297    -0.000003    47.014847    0.000003    -10.978671    -20.338045    -2.274263    0.000000    -0.281267    0.000001    -15.834943    -25.722828    -4.719803    0.000001    49.270752    -0.000001    18.883312    -21.964987    -16.183006    0.000000    -3.208487    0.000000    
